<svg xmlns="http://www.w3.org/2000/svg" viewBox="0 0 1200 675" width="1200" height="675" role="img" aria-label="Essential IPTV and streaming terms glossary illustration">
  <defs>
    <linearGradient id="bg" x1="0" y1="0" x2="1200" y2="675" gradientUnits="userSpaceOnUse">
      <stop offset="0%" stop-color="#0B0B0B"/>
      <stop offset="100%" stop-color="#151515"/>
    </linearGradient>
  </defs>
  <rect width="1200" height="675" fill="url(#bg)"/>
  <rect x="0.5" y="0.5" width="1199" height="674" fill="none" stroke="#ffffff" stroke-opacity="0.08"/>
  <!-- open book -->
  <path d="M600 220 L600 460" stroke="#D4AF37" stroke-width="2.5" stroke-opacity="0.7"/>
  <path d="M600 220 C 500 190 400 200 340 230 L 340 460 C 400 430 500 420 600 460" fill="none" stroke="#D4AF37" stroke-width="2.5" stroke-opacity="0.85"/>
  <path d="M600 220 C 700 190 800 200 860 230 L 860 460 C 800 430 700 420 600 460" fill="none" stroke="#D4AF37" stroke-width="2.5" stroke-opacity="0.85"/>
  <!-- lines of text on each page -->
  <g stroke="#2563EB" stroke-opacity="0.5" stroke-width="2">
    <line x1="370" y1="270" x2="560" y2="255"/>
    <line x1="370" y1="310" x2="560" y2="295"/>
    <line x1="370" y1="350" x2="560" y2="335"/>
    <line x1="640" y1="255" x2="830" y2="270"/>
    <line x1="640" y1="295" x2="830" y2="310"/>
    <line x1="640" y1="335" x2="830" y2="350"/>
  </g>
  <text x="600" y="580" text-anchor="middle" font-family="Arial, sans-serif" font-size="22" fill="#ffffff" fill-opacity="0.5">A quick-reference streaming glossary</text>
</svg>
